<?xml version="1.0" encoding="UTF-8" standalone="no"?>
<svg
   xmlns:dc="http://purl.org/dc/elements/1.1/"
   xmlns:cc="http://creativecommons.org/ns#"
   xmlns:rdf="http://www.w3.org/1999/02/22-rdf-syntax-ns#"
   xmlns:svg="http://www.w3.org/2000/svg"
   xmlns="http://www.w3.org/2000/svg"
   height="767.25348"
   width="748.59576"
   xml:space="preserve"
   enable-background="new 0 0 2223.086 1638.737"
   viewBox="0 0 748.59578 767.25345"
   y="0px"
   x="0px"
   id="Layer_1"
   version="1.1"><metadata
   id="metadata892"><rdf:RDF><cc:Work
       rdf:about=""><dc:format>image/svg+xml</dc:format><dc:type
         rdf:resource="http://purl.org/dc/dcmitype/StillImage" /><dc:title></dc:title></cc:Work></rdf:RDF></metadata><defs
   id="defs890" />

<g
   transform="translate(-724.73022,-352.19726)"
   style="display:inline"
   id="layer4"><g
     transform="matrix(1.4621011,0,0,1.4985419,388.21711,-134.58288)"
     id="g2393"><g
       transform="translate(40.880596,34.900672)"
       style="opacity:1"
       id="g2510"><circle
         r="256"
         cy="545.93518"
         cx="445.27661"
         id="path836"
         style="display:inline;fill:#ffb6c1;fill-opacity:1;stroke:#000000;stroke-width:0;stroke-miterlimit:4;stroke-dasharray:none;stroke-opacity:1" /><path
         style="display:inline;fill:#ffffff;fill-opacity:1;stroke-width:0.18157288"
         id="path885"
         d="m 611.64283,399.90284 c -5.22233,-0.83396 -8.37566,7.37511 -12.05894,4.72539 1.21964,-7.15775 11.88578,-13.40015 11.1976,-15.35754 -1.99312,2.48095 -3.39543,3.39764 -4.90111,3.66112 l 0.0314,-4.11231 c 1.46612,-5.0207 7.59363,-10.56834 4.00877,-13.72483 -1.34107,3.42953 -4.71597,8.35088 -4.73565,12.76687 l -2.24036,5.03731 c -0.24981,-0.0259 -0.50655,-0.0545 -0.77595,-0.0838 0.34785,-22.19054 -0.92419,8.20928 -5.16803,10.63214 -0.55296,-4.75489 1.1197,-12.56121 -0.86125,-15.35746 -2.96143,7.75315 -0.0314,23.58441 -6.8909,25.98959 -0.88474,-7.54416 3.17834,-14.50349 0.86143,-20.08283 -4.19125,9.60912 -1.72363,28.35125 -8.61349,34.25913 -0.36353,-11.67049 1.89147,-12.93233 1.72259,-24.80843 -8.76421,4.91204 -2.24302,30.78941 -11.19742,35.44058 -0.62113,-10.71023 2.67522,-22.30158 1.72259,-29.53377 -8.16399,8.88615 -1.53659,38.0584 -12.92019,42.52856 1.85961,-10.04969 3.12756,-20.91215 3.44536,-33.07785 -11.54973,5.03366 -2.33764,44.82975 -14.64277,44.89121 1.50654,-10.93813 4.79071,-25.7085 2.58402,-37.80323 -10.32476,7.89503 -3.16113,46.06441 -14.64277,48.43538 1.5383,-15.33514 3.14297,-23.28312 3.44536,-40.16589 -14.31994,5.56186 -1.72278,48.04198 -17.22688,51.97926 1.90867,-18.58624 3.96465,-31.5562 3.44526,-48.43537 -14.86956,11.43658 -1.96821,57.60372 -20.67234,61.43022 2.98112,-15.99438 5.53595,-32.57453 5.16813,-53.16074 -11.43884,7.73892 -10.8469,39.39213 -13.78162,60.24872 -2.93985,-0.0352 -6.18874,5.61019 -8.61348,2.36274 3.95866,-16.22937 5.68666,-35.51732 5.16794,-57.88608 -11.9804,11.13311 -10.63856,40.53909 -13.78153,63.79283 -2.565,2.38864 -5.04232,4.89782 -9.47483,4.72539 3.97845,-18.56611 5.35765,-46.99047 6.02947,-66.15556 -12.85742,14.90859 -12.72287,40.46957 -14.64286,69.69964 -2.59429,2.74183 -5.26103,5.38584 -9.47473,5.90682 3.29968,-21.07057 4.1206,-45.53984 6.02937,-68.51821 -13.29151,11.9482 -13.96505,40.83445 -14.64286,73.24353 -4.83293,0.85423 -6.75892,5.69418 -12.05885,5.90681 6.31361,-18.33685 4.68735,-45.879 6.89072,-72.06237 -13.79959,10.23882 -16.15644,46.34092 -16.36573,79.15042 -4.80974,1.27819 -6.53841,6.7833 -12.05885,7.08799 5.44884,-20.09349 5.15339,-54.3598 4.30679,-79.15035 -15.22254,17.06585 -16.70502,53.1052 -13.78162,87.41983 -4.29034,2.0118 -8.74101,10.03673 -13.78162,7.08804 7.18712,-20.0546 4.24137,-56.92579 6.02947,-87.41982 -17.17705,15.06574 -17.7611,57.74446 -17.22698,100.41462 -4.09226,2.26232 -5.92696,7.62198 -11.1975,8.26948 9.12166,-26.11253 0.69436,-63.92513 2.58411,-98.05196 -19.31566,11.05741 -18.49388,72.9554 -13.78152,109.86553 -4.79861,5.62546 -7.7124,13.83713 -15.5043,15.35752 7.84686,-37.71817 0.69084,-79.89122 -2.58412,-113.40949 -19.06931,25.70259 -15.96258,90.77021 -9.47486,132.31111 -13.4371,21.3872 -32.12383,41.60955 -44.79003,63.79287 -3.15685,5.52871 -8.6075,11.99067 -7.75215,15.35749 h 15.50421 c 16.92724,-23.64461 30.02744,-52.53812 47.37427,-75.60647 22.65262,19.11658 50.68437,47.84 86.99622,36.62181 -22.44341,-19.08603 -45.5111,-44.42474 -76.65996,-49.61661 4.90967,-6.65572 9.06223,-14.34873 15.5043,-18.90162 19.14602,22.42444 43.54366,52.15429 76.65987,41.34712 -24.28743,-13.94344 -36.70297,-44.16954 -68.04657,-48.43535 9.49128,-22.37833 20.30623,-7.20162 29.28582,1.18142 13.94347,13.01605 30.43757,31.62595 52.54237,25.98967 -18.01595,-18.60758 -33.76055,-40.33009 -58.57174,-49.61661 4.04567,-4.6901 8.24386,-9.17088 13.78162,-11.81363 16.39911,17.84312 31.91377,42.63128 60.29432,40.16596 -9.70305,-11.60904 -18.6447,-19.4309 -27.56324,-28.35233 -3.16712,-3.16837 -5.64349,-8.67948 -9.47483,-11.81363 -4.28416,-3.50622 -9.87269,-2.50447 -12.92009,-9.45064 2.46078,-4.10766 7.57652,-4.57315 11.19751,-7.08805 13.25614,17.139 28.31342,43.48777 51.68084,38.98447 -15.52246,-13.36461 -25.47789,-34.36315 -43.92869,-43.71006 3.00004,-4.15484 7.72619,-5.9421 12.05885,-8.26948 12.84268,15.46386 21.35271,36.86994 43.06753,40.1659 -7.51803,-15.68108 -21.60699,-32.58153 -34.45395,-44.89122 15.31725,-11.22986 19.78076,11.55481 31.0085,21.26428 7.04933,6.09587 13.567,7.75787 21.53368,10.63213 -8.22761,-17.856 -20.94116,-29.5586 -33.59252,-41.34711 4.29633,-0.0139 5.5289,-4.23033 10.33616,-3.5441 12.58509,10.21749 25.65276,31.3365 43.06745,27.17103 -10.7075,-12.09233 -22.03842,-23.32817 -34.45386,-33.07784 18.36988,-17.34334 27.80077,25.77104 49.09681,16.53896 -10.02008,-10.21623 -17.19512,-21.41446 -31.86993,-27.1711 14.30881,-19.18403 26.06364,19.98968 46.5127,10.63214 -9.57553,-8.52571 -19.38793,-16.72436 -30.14697,-23.627 11.88664,-17.738 25.79387,18.73622 41.34477,7.08804 -8.26213,-7.57008 -17.69987,-13.52766 -28.42449,-17.72019 7.90278,-21.58915 23.81017,13.37996 37.89922,1.18151 -8.70126,-4.60505 -16.10889,-10.98433 -25.84047,-14.1763 6.08111,-20.38547 24.104,8.49382 36.17654,-2.36266 -6.39548,-8.31074 -19.96951,-2.5341 -24.1176,-11.81357 5.64616,-11.71197 24.1582,4.70067 31.86975,-5.90681 -7.34782,-2.12962 -15.87506,-2.64229 -22.39558,-5.90637 2.95021,-11.70598 22.24011,-0.99941 27.56314,-9.4507 -5.91755,-1.61841 -14.70144,-0.53991 -18.94956,-1.18143 3.87165,-11.22887 19.4777,-6.364 24.11779,-16.53896 -6.75721,-1.37154 -11.56285,6.16664 -16.36574,3.5441 2.56244,-10.66171 15.20029,-7.50503 18.94966,-16.53896 z M 299.8349,677.52006 c 0.56428,0.77378 -0.36087,-0.49503 0,0 z m 62.01704,-72.06231 c 0.56418,0.77382 -0.36087,-0.49506 0,0 z M 503.97427,464.87716 c -0.36078,-0.49499 0.56418,0.77382 0,0 z m 0.86153,31.89648 c -0.36097,-0.49505 0.56418,0.77376 0,0 z m 14.64277,-23.627 c -0.36078,-0.495 0.56418,0.77381 0,0 z" /></g></g><rect
     y="251.53865"
     x="134.48602"
     height="724.73022"
     width="659.97772"
     id="rect2378"
     style="fill:none;fill-opacity:1;stroke:none;stroke-width:0.37795275;stroke-miterlimit:4;stroke-dasharray:none;stroke-opacity:1" /><flowRoot
     style="font-style:normal;font-weight:normal;font-size:40px;line-height:1.25;font-family:sans-serif;letter-spacing:0px;word-spacing:0px;fill:#000000;fill-opacity:1;stroke:none"
     id="flowRoot2477"
     xml:space="preserve"><flowRegion
       id="flowRegion2479"><rect
         y="513.03925"
         x="196.74806"
         height="79.695419"
         width="44.828674"
         id="rect2481" /></flowRegion><flowPara
       id="flowPara2483"></flowPara></flowRoot></g></svg>